<svg width="37" height="42" viewBox="0 4 37 42" fill="none" xmlns="http://www.w3.org/2000/svg">
<path d="M5.40154 43.1822V26.7848V17.232C6.40246 17.0553 7.50641 16.9523 8.59564 16.9523C13.1586 16.9523 15.7198 18.4537 15.7198 22.1188C15.7198 25.7839 13.3058 27.0939 9.33161 27.0939C8.19822 27.0939 6.78516 26.9909 5.8284 26.8437C6.12279 28.2568 6.52021 29.6846 6.96179 30.9946C8.78699 36.9412 11.2893 41.9163 13.8799 45.2282C14.1448 45.552 14.4981 45.7875 14.925 45.9789C11.4659 45.8317 8.22766 44.816 5.40154 43.1675V43.1822ZM15.8376 4.74997C9.75847 4.74997 4.28287 7.38473 0.5 11.5945C2.75206 11.2706 5.5193 11.0793 8.08047 11.0793C17.2065 11.0793 22.6968 14.0968 22.6968 21.7655C22.6968 26.4316 20.7097 29.5226 17.6039 31.2154C16.5294 31.7453 15.2488 32.2604 13.9829 32.6579C16.5147 39.3846 23.1678 42.3285 25.7437 43.506C32.1319 40.0028 36.4741 33.2025 36.4741 25.4012C36.4888 13.9937 27.2451 4.74997 15.8376 4.74997Z" fill="#38BDF8"/>
</svg>
